<svg width="200" height="200" viewBox="0 0 200 200" xmlns="http://www.w3.org/2000/svg">
  <defs>
    <linearGradient id="grad1" x1="0%" y1="0%" x2="100%" y2="100%">
      <stop offset="0%" style="stop-color:#FFD700;stop-opacity:1" />
      <stop offset="100%" style="stop-color:#FF8C00;stop-opacity:1" />
    </linearGradient>
    <linearGradient id="grad2" x1="0%" y1="0%" x2="100%" y2="100%">
      <stop offset="0%" style="stop-color:#00C6FF;stop-opacity:1" />
      <stop offset="100%" style="stop-color:#0066FF;stop-opacity:1" />
    </linearGradient>
  </defs>

  <circle cx="100" cy="100" r="90" fill="url(#grad1)" opacity="0.1"/>

  <path d="M100,20 C108.28,20 115.35,24.11 119.5,30 L130,40 C138.89,40.11 146.12,46.19 148.5,54.5 L155,68 C158.89,74.11 159.98,82.19 158.5,90.5 L150,100 C155.89,108.11 156.98,116.19 155.5,124.5 L148,138 C144.11,144.11 143.02,152.19 144.5,160.5 L130,170 C121.11,170.11 113.88,164.19 111.5,155.5 L100,145 C91.72,145 84.65,140.89 80.5,134 L70,124 C61.11,123.89 53.88,117.81 51.5,109.5 L45,96 C41.11,89.89 40.02,81.81 41.5,73.5 L50,60 C44.11,51.89 43.02,43.81 44.5,35.5 L52,22 C55.89,15.89 64.02,14.81 72.5,16.5 L85,25 C93.28,25 100.35,20.89 104.5,14.5 Z" fill="url(#grad2)"/>
  
  <path d="M100,50 L120,70 L140,50 L160,70 L140,90 L160,110 L140,130 L120,110 L100,130 L80,110 L60,130 L80,110 L60,90 L80,70 L100,50 Z" fill="url(#grad1)" opacity="0.8"/>
  
  <circle cx="100" cy="100" r="30" fill="url(#grad2)" opacity="0.6"/>
</svg>

